<svg id="Capa_1" data-name="Capa 1" xmlns="http://www.w3.org/2000/svg" viewBox="0 0 52 42"><defs><style>.cls-1{fill:#fff;}</style></defs><title>Card</title><path class="cls-1" d="M53,11V24H7V11H53m1.42-3H5.58A1.58,1.58,0,0,0,4,9.58V25.42A1.58,1.58,0,0,0,5.58,27H54.42A1.58,1.58,0,0,0,56,25.42V9.58A1.58,1.58,0,0,0,54.42,8Z" transform="translate(-4 -8)"/><path class="cls-1" d="M53,34V47H7V34H53m1.42-3H5.58A1.58,1.58,0,0,0,4,32.58V48.42A1.58,1.58,0,0,0,5.58,50H54.42A1.58,1.58,0,0,0,56,48.42V32.58A1.58,1.58,0,0,0,54.42,31Z" transform="translate(-4 -8)"/></svg>