<svg id="Capa_1" data-name="Capa 1" xmlns="http://www.w3.org/2000/svg" viewBox="0 0 57.53 44.51"><defs><style>.cls-1{fill:#fff;}</style></defs><title>colors</title><path class="cls-1" d="M35.59,10.79c-4.72,3.54,2.36,9.44-4.72,16.52-5.63,5.63-26.39-9.64-29.5,8.26C-2,55,43,62.9,55.64,42.64,67.44,23.77,42,6,35.59,10.79ZM15.53,47.36a4.72,4.72,0,1,1,4.72-4.72A4.72,4.72,0,0,1,15.53,47.36Zm11.21,2.36a4.13,4.13,0,1,1,4.13-4.13A4.13,4.13,0,0,1,26.74,49.72Zm10-1.18A3.54,3.54,0,1,1,40.31,45,3.54,3.54,0,0,1,36.77,48.54ZM44.43,45a2.95,2.95,0,1,1,2.95-2.95A2.95,2.95,0,0,1,44.43,45Zm5.31-5.9a2.36,2.36,0,1,1,2.36-2.36A2.36,2.36,0,0,1,49.74,39.1Z" transform="translate(-1.19 -10)"/></svg>