<svg id="Capa_1" data-name="Capa 1" xmlns="http://www.w3.org/2000/svg" viewBox="0 0 53 49.61"><defs><style>.cls-1{fill:none;stroke:#fff;stroke-miterlimit:10;stroke-width:3px;}</style></defs><title>home</title><path class="cls-1" d="M44.88,53h-8.5a1,1,0,0,1-1.06-1V46a1,1,0,0,0-1.06-1h-8.5a1,1,0,0,0-1.06,1v6a1,1,0,0,1-1.06,1h-8.5a1,1,0,0,1-1.06-1V31A1,1,0,0,0,13,30H6.07a1,1,0,0,1-.74-1.72L29.26,6.66a1.11,1.11,0,0,1,1.47,0L54.67,28.28A1,1,0,0,1,53.93,30H47a1,1,0,0,0-1.06,1V52A1,1,0,0,1,44.88,53Z" transform="translate(-3.5 -4.89)"/></svg>