<svg id="Capa_1" data-name="Capa 1" xmlns="http://www.w3.org/2000/svg" viewBox="0 0 58 58"><defs><style>.cls-1{fill:#fff;}.cls-02{fill:none;stroke:#fff;stroke-miterlimit:10;stroke-width:2px;}</style></defs><title>table</title><path class="cls-1" d="M56,3a1,1,0,0,1,1,1V56a1,1,0,0,1-1,1H4a1,1,0,0,1-1-1V4A1,1,0,0,1,4,3H56m0-2H4A3,3,0,0,0,1,4V56a3,3,0,0,0,3,3H56a3,3,0,0,0,3-3V4a3,3,0,0,0-3-3Z" transform="translate(-1 -1)"/><line class="cls-02" x1="19" y1="1" x2="19" y2="57"/><line class="cls-02" x1="0.5" y1="38" x2="57.5" y2="38"/><line class="cls-02" x1="39" y1="1" x2="39" y2="57"/><line class="cls-02" y1="20" x2="57" y2="20"/></svg>