<svg xmlns="http://www.w3.org/2000/svg" width="594.478" height="588.994" viewBox="0 0 594.478 588.994">
  <g id="jquery" transform="translate(-0.981 -9.417)">
    <g id="Grupo_6" data-name="Grupo 6" transform="translate(0.981 9.417)">
      <g id="Grupo_5" data-name="Grupo 5" transform="translate(0 0)">
        <path id="Trazado_38" data-name="Trazado 38" d="M581.662,361.4l-2.662,6.9c-45.349,88.3-125.692,142.474-240.294,144.863-53.575,1.1-104.624-12.64-137.968-27.592C128.77,453.23,68.242,393.268,35.183,329.2c-47.42-91.84-55.97-219.6,42.628-315.021,1.52,0-11.959,20.691-10.44,20.691L64.659,43.7C-6.394,266.148,212.508,456.775,425.3,434.974c51.14-5.239,116.356-33.247,156.361-73.578" transform="translate(-0.981 75.777)" fill="#21609b" fill-rule="evenodd"/>
        <path id="Trazado_39" data-name="Trazado 39" d="M304.458,321.651c53.536.37,109.454-24.651,142.565-59.781-28.969,73.539-112.85,120.809-225.342,105.773C127.5,355.041,37.773,260.259,28.528,165.29,21.769,96.172,45.862,54.92,85.557,4.884,71.76,31.054,66.605,51.239,65.32,64.113,50.238,213.625,184.753,320.872,304.458,321.651" transform="translate(147.454 23.54)" fill="#21609b" fill-rule="evenodd"/>
        <path id="Trazado_40" data-name="Trazado 40" d="M311.937,160.08c-8.324,19.088-56.243,55.139-77.4,59.645-83.79,17.847-137.456-21.885-165.561-67.1-4.181-6.759-11.907-25.2-13.29-29.891C44.785,85.671,49.8,29.61,82.316.589c-9.8,27.592-11.225,59.645-6.07,80.479,3.123,12.6,12.64,34.591,22.165,48.426C115.746,154.7,126.737,160.82,149,174.2c10.025,6.025,20.782,10.855,25.431,12.186,21.106,6.207,65.67,22.581,137.508-26.306" transform="translate(277.165 -0.589)" fill="#21609b" fill-rule="evenodd"/>
      </g>
    </g>
  </g>
</svg>
